PathFileType	4	(X/Y/Z)	/Users/itak/Documents/Research/Walk-IL/dataset/trc/00460_00167.trc
DataRate	CameraRate	NumFrames	NumMarkers	Units	OrigDataRate	OrigDataStartFrame	OrigNumFrames
100.000000	100.000000	4	53	mm	100.000000	85	683
Frame#	Time	RPSI			LPSI			L3			STRN			T10			C7			CLAV			RBAK			LBAK			LSHO			LUPA			LAEL			LAOL			LWTS			LWPS			LFRA			LIFD			LHPS			LHTS			RSHO			RUPA			RAEL			RAOL			RWTS			RWPS			RFRA			RIFD			RHTS			RHPS			RBHD			LFHD			RFHD			LBHD			LHIP			RHIP			RASI			LASI			LKNE			LTHI			LANK			LTIP			LTOE			LMT1			LMT5			LHEE			RKNE			RTHI			RANK			RTIP			RTOE			RMT1			RMT5			RHEE			
		X1	Y1	Z1	X2	Y2	Z2	X3	Y3	Z3	X4	Y4	Z4	X5	Y5	Z5	X6	Y6	Z6	X7	Y7	Z7	X8	Y8	Z8	X9	Y9	Z9	X10	Y10	Z10	X11	Y11	Z11	X12	Y12	Z12	X13	Y13	Z13	X14	Y14	Z14	X15	Y15	Z15	X16	Y16	Z16	X17	Y17	Z17	X18	Y18	Z18	X19	Y19	Z19	X20	Y20	Z20	X21	Y21	Z21	X22	Y22	Z22	X23	Y23	Z23	X24	Y24	Z24	X25	Y25	Z25	X26	Y26	Z26	X27	Y27	Z27	X28	Y28	Z28	X29	Y29	Z29	X30	Y30	Z30	X31	Y31	Z31	X32	Y32	Z32	X33	Y33	Z33	X34	Y34	Z34	X35	Y35	Z35	X36	Y36	Z36	X37	Y37	Z37	X38	Y38	Z38	X39	Y39	Z39	X40	Y40	Z40	X41	Y41	Z41	X42	Y42	Z42	X43	Y43	Z43	X44	Y44	Z44	X45	Y45	Z45	X46	Y46	Z46	X47	Y47	Z47	X48	Y48	Z48	X49	Y49	Z49	X50	Y50	Z50	X51	Y51	Z51	X52	Y52	Z52	X53	Y53	Z53	

86	0.85	-1204.1689453125	968.8981323242188	-535.0469970703125	-1205.375854492188	965.7704467773438	-676.27197265625	-1190.996215820312	1051.917114257812	-592.7466430664062	-928.7353515625	1261.249877929688	-618.971923828125	-1215.041381835938	1175.854370117188	-596.3961791992188	-1158.964599609375	1446.516357421875	-588.5752563476562	-970.2012329101562	1372.715942382812	-620.38232421875	-1208.050415039062	1325.643676757812	-489.4151916503906	-1198.5302734375	1396.606567382812	-685.1751708984375	-1105.587768554688	1425.771118164062	-774.8574829101562	-1117.707763671875	1307.386108398438	-873.0848999023438	-1086.463256835938	1091.454711914062	-907.0748291015625	-1163.766967773438	1075.144897460938	-839.8085327148438	-1000.471008300781	890.5062255859375	-861.3729248046875	-1045.479370117188	874.2244262695312	-918.2572021484375	-1062.692504882812	1004.250427246094	-916.6931762695312	-998.5138549804688	719.6016235351562	-864.8072509765625	-1038.52001953125	795.3895874023438	-917.9418334960938	-983.6297607421875	802.4370727539062	-869.899658203125	-1075.673828125	1423.010131835938	-434.9366455078125	-1084.6865234375	1361.580688476562	-357.4903869628906	-1055.849609375	1074.184204101562	-303.615966796875	-1114.193237304688	1055.99951171875	-332.1597290039062	-957.9893188476562	874.2003784179688	-373.6488952636719	-1009.762390136719	856.4295043945312	-303.9562683105469	-1046.906005859375	1015.331909179688	-297.0770263671875	-949.1361694335938	718.0968627929688	-367.9732055664062	-935.744140625	777.49951171875	-366.3540649414062	-989.8888549804688	770.548095703125	-311.8335571289062	-1076.795532226562	1648.745239257812	-509.7547607421875	-957.3887329101562	1670.793212890625	-677.0035400390625	-944.8494262695312	1670.721069335938	-546.8482055664062	-1108.773071289062	1653.126220703125	-684.3521118164062	-1074.836303710938	861.8358764648438	-796.3262329101562	-1088.460327148438	862.2918090820312	-400.9174499511719	-979.7710571289062	902.862548828125	-461.8602294921875	-969.8262329101562	900.127197265625	-719.36962890625	-1091.637939453125	443.368896484375	-758.173095703125	-1059.712524414062	593.72119140625	-782.826416015625	-1172.288452148438	39.18613433837891	-742.31982421875	-1104.952880859375	297.8444519042969	-769.6350708007812	-932.6507568359375	44.23545074462891	-696.0635375976562	-1003.925231933594	52.17710494995117	-659.519775390625	-1019.306396484375	44.45015335083008	-772.5783081054688	-1208.392333984375	46.4173583984375	-673.189208984375	-1069.396362304688	467.7508544921875	-427.2171020507812	-1045.6669921875	728.3936767578125	-389.4693908691406	-1123.943725585938	44.37485122680664	-417.6316833496094	-1070.246459960938	327.5581665039062	-416.3684692382812	-916.8370971679688	47.7577018737793	-489.6563720703125	-982.840087890625	51.65248870849609	-519.2455444335938	-987.2302856445312	48.25863265991211	-411.3703002929688	-1195.783325195312	36.4476203918457	-456.4587707519531	
87	0.86	-1204.19482421875	968.880615234375	-535.05810546875	-1205.401245117188	965.690673828125	-676.3096313476562	-1190.998291015625	1051.9013671875	-592.7354125976562	-928.7760620117188	1261.176147460938	-619.0726928710938	-1214.968505859375	1175.847900390625	-596.368408203125	-1158.885498046875	1446.512939453125	-588.6344604492188	-970.0867919921875	1372.658203125	-620.5059814453125	-1207.981201171875	1325.653930664062	-489.4229431152344	-1198.495727539062	1396.576782226562	-685.2127685546875	-1105.654174804688	1425.71337890625	-774.9553833007812	-1117.8544921875	1307.173095703125	-873.0897216796875	-1086.79150390625	1091.200439453125	-906.9763793945312	-1164	1075.039306640625	-839.5591430664062	-1000.883728027344	890.2695922851562	-861.2677612304688	-1046.0224609375	873.9527587890625	-918.0446166992188	-1063.064819335938	1004.003662109375	-916.5352172851562	-999.0767211914062	719.300048828125	-864.5869750976562	-1039.214477539062	795.1005859375	-917.7918701171875	-984.2431030273438	802.1649169921875	-869.7677612304688	-1075.570434570312	1422.99365234375	-435.0242004394531	-1084.580200195312	1361.552490234375	-357.5933532714844	-1055.845581054688	1074.131225585938	-303.7254943847656	-1114.230712890625	1055.965454101562	-332.2896728515625	-958.2184448242188	874.0836181640625	-373.8465881347656	-1009.85595703125	856.3682861328125	-304.1207275390625	-1046.943481445312	1015.268371582031	-297.2403564453125	-949.3199462890625	718.0076904296875	-368.1536865234375	-935.9153442382812	777.4229125976562	-366.5272521972656	-990.0357055664062	770.4819946289062	-312.0469055175781	-1076.620971679688	1648.784423828125	-509.9513244628906	-957.1168823242188	1670.720947265625	-677.18212890625	-944.6625366210938	1670.658569335938	-547.0243530273438	-1108.612426757812	1653.145385742188	-684.4740600585938	-1074.75537109375	861.807373046875	-796.4420166015625	-1088.48046875	862.2611694335938	-400.9418029785156	-979.767333984375	902.8384399414062	-461.8795471191406	-970.02197265625	900.0770263671875	-719.330810546875	-1091.583984375	443.3536071777344	-758.1819458007812	-1059.650756835938	593.7125854492188	-782.8372192382812	-1172.332153320312	39.15160369873047	-742.31982421875	-1104.866577148438	297.8184509277344	-769.6061401367188	-932.6506958007812	44.24016571044922	-696.0663452148438	-1003.932067871094	52.15927886962891	-659.4903564453125	-1019.286743164062	44.47658157348633	-772.5529174804688	-1208.39306640625	46.40563583374023	-673.1836547851562	-1069.341674804688	467.7391052246094	-427.2471008300781	-1045.662841796875	728.3818969726562	-389.4797058105469	-1123.94189453125	44.38117218017578	-417.6376953125	-1070.18896484375	327.533935546875	-416.3956298828125	-916.8422241210938	47.75677108764648	-489.6644592285156	-982.857666015625	51.6536750793457	-519.2745971679688	-987.22998046875	48.27130889892578	-411.3883056640625	-1195.789916992188	36.4394645690918	-456.4677734375	
88	0.87	-1204.22216796875	968.8629150390625	-535.0667724609375	-1205.433837890625	965.6184692382812	-676.3392944335938	-1191.001831054688	1051.890380859375	-592.71435546875	-928.8128051757812	1261.09814453125	-619.1716918945312	-1214.890869140625	1175.85009765625	-596.332275390625	-1158.794189453125	1446.516357421875	-588.7011108398438	-969.9856567382812	1372.595458984375	-620.6272583007812	-1207.90185546875	1325.671752929688	-489.43212890625	-1198.45263671875	1396.555053710938	-685.2516479492188	-1105.727172851562	1425.665405273438	-775.0570678710938	-1118.001098632812	1306.96826171875	-873.0885620117188	-1087.126342773438	1090.951416015625	-906.859375	-1164.239135742188	1074.938598632812	-839.304443359375	-1001.262390136719	890.076416015625	-861.1448364257812	-1046.561645507812	873.69140625	-917.8255615234375	-1063.40087890625	1003.761962890625	-916.3482055664062	-999.604736328125	719.0090942382812	-864.3043823242188	-1039.88818359375	794.8312377929688	-917.5990600585938	-984.802978515625	801.9199829101562	-869.5838623046875	-1075.452758789062	1422.980590820312	-435.1144714355469	-1084.465698242188	1361.52685546875	-357.6935424804688	-1055.842163085938	1074.078369140625	-303.8385314941406	-1114.279296875	1055.937377929688	-332.4142150878906	-958.4583740234375	873.9765625	-374.0581665039062	-1009.949829101562	856.3131103515625	-304.2837829589844	-1046.993774414062	1015.207153320312	-297.3921508789062	-949.4795532226562	717.9341430664062	-368.3505249023438	-936.0806274414062	777.3673095703125	-366.7027893066406	-990.18359375	770.427734375	-312.26025390625	-1076.43896484375	1648.831298828125	-510.1393432617188	-956.8385620117188	1670.648559570312	-677.3637084960938	-944.4656982421875	1670.6044921875	-547.2080078125	-1108.45849609375	1653.158325195312	-684.6060180664062	-1074.700927734375	861.7877197265625	-796.5528564453125	-1088.5	862.2315063476562	-400.9643249511719	-979.7516479492188	902.8167114257812	-461.9028015136719	-970.232177734375	900.0255126953125	-719.3090209960938	-1091.518920898438	443.33447265625	-758.1845703125	-1059.590087890625	593.7062377929688	-782.849609375	-1172.377807617188	39.11404418945312	-742.3216552734375	-1104.7744140625	297.7891540527344	-769.57666015625	-932.6522827148438	44.24446105957031	-696.0669555664062	-1003.938903808594	52.13714218139648	-659.4592895507812	-1019.272155761719	44.50030136108398	-772.5302734375	-1208.39404296875	46.39639282226562	-673.1767578125	-1069.278076171875	467.7284851074219	-427.2794189453125	-1045.654907226562	728.3672485351562	-389.4966125488281	-1123.940673828125	44.38898849487305	-417.6446228027344	-1070.123657226562	327.5085144042969	-416.427978515625	-916.84716796875	47.75511169433594	-489.6739196777344	-982.88330078125	51.65651321411133	-519.3043212890625	-987.229248046875	48.28343963623047	-411.4108276367188	-1195.796875	36.43341445922852	-456.4768981933594	
89	0.88	-1204.248413085938	968.8466186523438	-535.0722045898438	-1205.472534179688	965.5592651367188	-676.3582153320312	-1191.005859375	1051.884765625	-592.6839599609375	-928.84375	1261.017944335938	-619.2681884765625	-1214.810546875	1175.861694335938	-596.28662109375	-1158.691040039062	1446.52734375	-588.7755126953125	-969.8973999023438	1372.5302734375	-620.743896484375	-1207.811279296875	1325.69775390625	-489.4442138671875	-1198.40283203125	1396.54150390625	-685.290283203125	-1105.800903320312	1425.622924804688	-775.1599731445312	-1118.142211914062	1306.775146484375	-873.0817260742188	-1087.46240234375	1090.714721679688	-906.7191162109375	-1164.480224609375	1074.84423828125	-839.0485229492188	-1001.614013671875	889.916748046875	-861.0001220703125	-1047.089477539062	873.4444580078125	-917.6002197265625	-1063.704833984375	1003.526611328125	-916.133544921875	-1000.105895996094	718.7352905273438	-863.9617919921875	-1040.52880859375	794.5866088867188	-917.3495483398438	-985.2947387695312	801.6975708007812	-869.3502807617188	-1075.31982421875	1422.971557617188	-435.2078552246094	-1084.34228515625	1361.50439453125	-357.7903747558594	-1055.84326171875	1074.027465820312	-303.950439453125	-1114.32275390625	1055.913696289062	-332.5498657226562	-958.6991577148438	873.88330078125	-374.2810363769531	-1010.041625976562	856.2634887695312	-304.4476928710938	-1047.053588867188	1015.148010253906	-297.53271484375	-949.6226196289062	717.8753051757812	-368.5630187988281	-936.2435913085938	777.3302001953125	-366.8843383789062	-990.3297119140625	770.3834838867188	-312.4713439941406	-1076.24755859375	1648.890258789062	-510.3185119628906	-956.5645751953125	1670.573974609375	-677.5469970703125	-944.2527465820312	1670.560302734375	-547.4010620117188	-1108.301635742188	1653.165771484375	-684.751953125	-1074.678466796875	861.7784423828125	-796.6546020507812	-1088.517456054688	862.2039184570312	-400.9849243164062	-979.72607421875	902.7982177734375	-461.9309692382812	-970.4555053710938	899.9715576171875	-719.3114624023438	-1091.447509765625	443.3130798339844	-758.1843872070312	-1059.533203125	593.7017211914062	-782.8644409179688	-1172.41845703125	39.07962417602539	-742.323486328125	-1104.683959960938	297.7582397460938	-769.5504760742188	-932.6554565429688	44.24810409545898	-696.06640625	-1003.947082519531	52.11277770996094	-659.4295043945312	-1019.262939453125	44.52093505859375	-772.511474609375	-1208.39599609375	46.389892578125	-673.1683349609375	-1069.20751953125	467.7193298339844	-427.3140563964844	-1045.641479492188	728.3486328125	-389.5226135253906	-1123.940795898438	44.39836502075195	-417.6517639160156	-1070.052124023438	327.4821166992188	-416.466064453125	-916.851318359375	47.75312423706055	-489.6839599609375	-982.91357421875	51.65925979614258	-519.3338012695312	-987.2276000976562	48.29574966430664	-411.4369201660156	-1195.803833007812	36.43007659912109	-456.4856872558594	
